<?xml version="1.0" encoding="UTF-8"?>
<svg version="1.1" xmlns="http://www.w3.org/2000/svg" width="800" height="800">
<path d="M0 0 C1.29115723 0.59917236 1.29115723 0.59917236 2.60839844 1.21044922 C27.85925153 13.05922515 51.06832029 28.59917773 72 47 C72.71027344 47.61101562 73.42054688 48.22203125 74.15234375 48.8515625 C76.11909995 50.54884494 78.06137835 52.27066137 80 54 C80.86625 54.76183594 81.7325 55.52367187 82.625 56.30859375 C95.2096704 67.57120436 106.56517045 79.87665306 116.74121094 93.3515625 C117.96244257 94.95081696 119.21905614 96.52285877 120.4765625 98.09375 C162.31760758 150.69392096 184.12887522 219.32558707 186 286 C186.061875 287.81757812 186.061875 287.81757812 186.125 289.671875 C187.51179107 370.4524548 157.92291849 448.40123837 105 509 C104.31035156 509.80179688 103.62070312 510.60359375 102.91015625 511.4296875 C93.02373556 522.70134563 82.38965081 533.75599951 70.5546875 542.9921875 C68.8333855 544.34501507 67.1506323 545.74818911 65.5078125 547.1953125 C55.17185645 556.27297825 43.55891001 563.59191558 32 571 C31.23526367 571.49032715 30.47052734 571.9806543 29.68261719 572.48583984 C-10.96579964 598.21061806 -58.39123992 612.80844009 -106 618 C-107.28982788 618.14356934 -107.28982788 618.14356934 -108.60571289 618.29003906 C-194.08766448 626.64142293 -280.09080393 599.72316049 -346.23828125 545.3515625 C-412.03663884 490.65255366 -454.06522403 412.9938521 -463.17529297 327.72949219 C-465.62044028 300.34533097 -465.20406321 272.17733063 -461 245 C-460.23961426 245.32033203 -459.47922852 245.64066406 -458.69580078 245.97070312 C-437.99551408 254.65052964 -417.28995178 261.81493532 -395 265 C-393.70964844 265.18820312 -392.41929687 265.37640625 -391.08984375 265.5703125 C-384.41141433 266.27970344 -377.67969853 266.1486223 -370.97167969 266.13037109 C-368.63730323 266.12502816 -366.30312049 266.13033264 -363.96875 266.13671875 C-355.92593553 266.13992689 -347.99846828 265.95964132 -340 265 C-340.0407666 265.90427734 -340.0815332 266.80855469 -340.12353516 267.74023438 C-342.52385735 323.62030144 -332.6142218 376.84442102 -296 421 C-295.50822266 421.59329102 -295.01644531 422.18658203 -294.50976562 422.79785156 C-285.73563028 433.31690592 -276.75743145 442.46390829 -266 451 C-264.98679687 451.81855469 -263.97359375 452.63710938 -262.9296875 453.48046875 C-238.55713828 472.9339265 -209.28060564 485.27521852 -179 492 C-177.84371094 492.26901123 -177.84371094 492.26901123 -176.6640625 492.54345703 C-152.83464821 497.88069462 -123.76034765 497.39452809 -100 492 C-99.21318848 491.83371094 -98.42637695 491.66742187 -97.61572266 491.49609375 C-70.98770707 485.81376677 -44.98465571 475.23976028 -23 459 C-21.96230469 458.24460937 -20.92460938 457.48921875 -19.85546875 456.7109375 C-12.26345987 451.0853426 -5.26621703 444.91270699 1.55566406 438.38134766 C2.83801618 437.15491961 4.13297661 435.94170513 5.4296875 434.73046875 C16.32142696 424.28447663 25.01823462 411.74454719 33 399 C33.56799316 398.10087891 33.56799316 398.10087891 34.14746094 397.18359375 C61.45204412 353.32575502 68.42481252 297.75297262 57.05078125 247.85180664 C50.33358213 220.19889266 38.3898996 194.56122178 21 172 C20.23042969 170.9996875 19.46085937 169.999375 18.66796875 168.96875 C16.50391034 166.25490378 14.27994404 163.61714584 12 161 C11.56252441 160.49549316 11.12504883 159.99098633 10.67431641 159.47119141 C-5.52317749 140.93161984 -25.15680579 126.28520799 -47 115 C-47.66435059 114.65485352 -48.32870117 114.30970703 -49.01318359 113.95410156 C-85.94583702 95.03022574 -127.04389581 90.09941865 -168 94 C-167.9278125 92.76507813 -167.855625 91.53015625 -167.78125 90.2578125 C-165.59197457 51.18916199 -169.13639976 12.76516006 -186.96875 -22.8046875 C-188 -25 -188 -25 -188 -27 C-126.38239697 -40.90512155 -56.22958638 -26.18070495 0 0 Z " fill="#2CA1CE" transform="translate(553,119)"/>
<path d="M0 0 C24.69407943 21.51639169 39.95368946 51.31196331 42.26953125 84.16796875 C43.95875106 120.01110153 32.07805526 151.73584465 8.13671875 178.328125 C-12.87450417 200.44885144 -42.51094115 213.87852846 -72.9375 215.13671875 C-108.54714617 216.03230288 -138.91794544 205.50523409 -165.171875 181.18359375 C-187.27183747 159.72215347 -201.03733514 130.80283115 -202.60546875 99.8203125 C-202.65832031 98.83546875 -202.71117187 97.850625 -202.765625 96.8359375 C-203.20970795 80.3855603 -200.25327945 64.22956319 -194.60546875 48.8203125 C-194.22519531 47.76585937 -193.84492188 46.71140625 -193.453125 45.625 C-181.98396781 16.04461479 -157.2939918 -7.43984404 -128.60546875 -20.1796875 C-84.92710572 -38.28435935 -35.94884395 -30.07414531 0 0 Z " fill="#16B0D1" transform="translate(264.60546875,91.1796875)"/>
<path d="M0 0 C25.62297556 22.35534882 40.21532376 52.42244049 42.55517578 86.25195312 C44.09890162 117.90156227 33.97413614 149.16579569 12.94921875 173.00390625 C11.4378043 174.61695029 9.91690618 176.22115983 8.38671875 177.81640625 C7.24976563 179.04810547 7.24976563 179.04810547 6.08984375 180.3046875 C-12.58331892 199.92371299 -40.71709217 213.50739703 -67.84448242 214.9934082 C-105.8546586 215.69672956 -137.63279472 207.33277643 -165.765625 180.59375 C-187.00098082 159.88272395 -201.05761985 131.22659152 -201.94921875 101.3125 C-201.97933962 98.6247919 -201.99613972 95.94134545 -201.98828125 93.25390625 C-201.98773743 92.55152832 -201.9871936 91.84915039 -201.9866333 91.12548828 C-201.94586767 79.64327856 -201.07228506 68.81993436 -197.61328125 57.81640625 C-197.39897461 57.12740234 -197.18466797 56.43839844 -196.96386719 55.72851562 C-191.91942484 40.05917069 -184.14552565 26.41000735 -173.61328125 13.81640625 C-172.44152344 12.39714844 -172.44152344 12.39714844 -171.24609375 10.94921875 C-127.78311242 -39.35383833 -49.67164617 -41.50440988 0 0 Z " fill="#28A3CE" transform="translate(493.61328125,320.18359375)"/>
</svg>
