<?xml version="1.0" encoding="UTF-8"?>
<svg version="1.1" xmlns="http://www.w3.org/2000/svg" width="200" height="200">
<path d="M0 0 C66 0 132 0 200 0 C200 66 200 132 200 200 C134 200 68 200 0 200 C0 134 0 68 0 0 Z " fill="#4E8CFC" transform="translate(0,0)"/>
<path d="M0 0 C0.82186798 -0.02263412 1.64373596 -0.04526825 2.49050903 -0.06858826 C10.05655154 -0.26542036 17.62415728 -0.38116282 25.19214821 -0.47180843 C30.26795566 -0.53362788 35.34011941 -0.6222755 40.4140625 -0.77539062 C45.3350507 -0.9232155 50.25272552 -1.00119475 55.17579269 -1.03152657 C57.0427805 -1.0547337 58.90964181 -1.10215469 60.77534866 -1.1750927 C74.90725977 -1.70244621 74.90725977 -1.70244621 79.57021332 1.6855278 C83.37078114 5.40610104 86.14714547 9.70520931 88.71240234 14.33569336 C89.30767731 15.38576065 89.90295227 16.43582794 90.51626587 17.51771545 C93.71240234 23.44962604 93.71240234 23.44962604 93.71240234 26.33569336 C87.11240234 26.33569336 80.51240234 26.33569336 73.71240234 26.33569336 C74.51677734 28.06819336 75.32115234 29.80069336 76.14990234 31.58569336 C81.01143122 42.05667863 81.67138539 55.70514901 78.58740234 66.89819336 C77.74365234 69.12084961 77.74365234 69.12084961 76.71240234 71.33569336 C76.31021484 72.2212793 75.90802734 73.10686523 75.49365234 74.01928711 C68.34260965 88.34123651 57.32919115 97.38582736 42.31787109 102.60913086 C35.56969905 104.49092996 29.05523881 104.45480552 22.10302734 104.44116211 C19.79833049 104.45461876 17.49364234 104.46964202 15.18896484 104.48608398 C11.57700258 104.50888554 7.96602855 104.52320587 4.35400391 104.51074219 C0.85296672 104.50188668 -2.646136 104.53091574 -6.14697266 104.56616211 C-7.213974 104.55393112 -8.28097534 104.54170013 -9.38031006 104.52909851 C-17.02332652 104.65142085 -22.26466063 106.58122121 -28.28759766 111.33569336 C-33.2951282 116.62882263 -35.27624909 122.50734783 -35.66259766 129.77319336 C-35.47066092 136.42323661 -32.57429852 141.19431038 -28.16259766 146.02319336 C-19.16931853 154.3188806 -7.8990654 156.07158364 3.71240234 158.33569336 C3.71240234 158.66569336 3.71240234 158.99569336 3.71240234 159.33569336 C-25.32759766 159.33569336 -54.36759766 159.33569336 -84.28759766 159.33569336 C-84.28759766 128.97569336 -84.28759766 98.61569336 -84.28759766 67.33569336 C-83.95759766 67.33569336 -83.62759766 67.33569336 -83.28759766 67.33569336 C-83.20123047 68.0769043 -83.11486328 68.81811523 -83.02587891 69.58178711 C-80.71209057 86.92458592 -75.4552064 104.50066215 -64.28759766 118.33569336 C-64.00787109 117.59706055 -63.72814453 116.85842773 -63.43994141 116.09741211 C-58.657421 103.99502124 -52.33650553 91.54270651 -40.28759766 85.33569336 C-41.56334538 82.00228802 -43.02296344 78.90702926 -44.72509766 75.77319336 C-50.86650477 63.45403943 -52.40889135 49.84683203 -48.66259766 36.52319336 C-43.65798449 22.12829895 -34.73767752 11.88900805 -21.30322266 4.74975586 C-14.06544529 1.3656059 -7.98799081 0.19114681 0 0 Z " fill="#FCFDFE" transform="translate(84.28759765625,40.664306640625)"/>
<path d="M0 0 C1.40798025 -0.01146932 2.81591876 -0.03184074 4.22363281 -0.06152344 C14.56887838 -0.27927966 22.55858358 0.69984312 31.31542969 6.48266602 C36.88301236 12.30920602 39.30975052 17.12224928 39.56542969 25.29516602 C39.21454663 33.65338038 37.39664715 39.33171173 31.31542969 45.17016602 C23.58043159 52.02731636 13.53767868 51.82654158 3.77416992 51.79614258 C1.57240303 51.7951691 -0.6258814 51.83691615 -2.82714844 51.88110352 C-12.23450628 51.96155424 -19.88131301 50.89570941 -27.12548828 44.38110352 C-32.4257896 39.00212026 -34.95808425 32.79982143 -35.43457031 25.29516602 C-35.1106671 18.21154353 -31.4030543 11.93502413 -26.70800781 6.79907227 C-18.91134998 -0.05415437 -9.83848181 0.05566808 0 0 Z " fill="#4E8CFC" transform="translate(96.9970703125,66.704833984375)"/>
<path d="M0 0 C30.36 0 60.72 0 92 0 C92 29.04 92 58.08 92 88 C91.67 88 91.34 88 91 88 C90.79246094 86.89785156 90.58492188 85.79570313 90.37109375 84.66015625 C85.16359612 58.43314553 72.67180148 34.9807946 50.47265625 19.2265625 C34.75245308 8.92568033 18.72455658 2.798299 0 1 C0 0.67 0 0.34 0 0 Z " fill="#FBFDFE" transform="translate(108,0)"/>
<path d="M0 0 C0.33 0 0.66 0 1 0 C1 29.04 1 58.08 1 88 C-28.04 88 -57.08 88 -87 88 C-87 87.67 -87 87.34 -87 87 C-85.38544922 86.65388672 -85.38544922 86.65388672 -83.73828125 86.30078125 C-57.25122904 80.4608282 -33.763414 68.75424335 -17.91796875 46.01171875 C-8.55148013 31.34411993 -3.32105459 16.99598528 0 0 Z " fill="#FCFDFE" transform="translate(199,112)"/>
<path d="M0 0 C29.04 0 58.08 0 88 0 C88 0.33 88 0.66 88 1 C86.83984375 1.23074219 85.6796875 1.46148437 84.484375 1.69921875 C66.5469939 5.38988737 50.07215662 11.94897898 36 24 C35.18917969 24.66644531 34.37835938 25.33289063 33.54296875 26.01953125 C14.27862887 42.44304681 5.9763206 63.9389605 1 88 C0.67 88 0.34 88 0 88 C0 58.96 0 29.92 0 0 Z " fill="#FCFDFE" transform="translate(0,0)"/>
<path d="M0 0 C0.66 0 1.32 0 2 0 C2.66 1.65 3.32 3.3 4 5 C4.66 4.34 5.32 3.68 6 3 C7.76732001 7.41830002 6.5154198 8.6960307 5 14 C-0.61 14 -6.22 14 -12 14 C-11.34773437 15.52882813 -10.69546875 17.05765625 -10.0234375 18.6328125 C-7.55428396 25.43442609 -7.47531369 31.7058134 -7.625 38.875 C-7.62628906 40.07125 -7.62757813 41.2675 -7.62890625 42.5 C-7.68276568 47.85003704 -7.73273684 52.07986932 -10 57 C-10.66 57 -11.32 57 -12 57 C-11.67 55.7625 -11.34 54.525 -11 53.25 C-8.29817318 39.38588138 -9.01537509 26.78144892 -15 14 C-15 13.34 -15 12.68 -15 12 C-8.4 12 -1.8 12 5 12 C3.7625 9.586875 3.7625 9.586875 2.5 7.125 C0 2.25 0 2.25 0 0 Z " fill="#6190E6" transform="translate(173,55)"/>
<path d="M0 0 C2.05078125 0.03255208 4.1015625 0.06510417 6.15234375 0.09765625 C1.87284985 4.37715015 -5.60014138 4.20841289 -11.38916016 4.32470703 C-13.36754128 4.3243958 -15.34594335 4.31342383 -17.32421875 4.29296875 C-18.37547943 4.29013885 -19.42674011 4.28730896 -20.50985718 4.28439331 C-23.83091149 4.27329768 -27.15168498 4.24821331 -30.47265625 4.22265625 C-32.73957941 4.21261271 -35.00650684 4.20348928 -37.2734375 4.1953125 C-42.7982711 4.17339326 -48.3229436 4.14002324 -53.84765625 4.09765625 C-53.51765625 3.43765625 -53.18765625 2.77765625 -52.84765625 2.09765625 C-52.22347305 2.08734879 -51.59928986 2.07704132 -50.95619202 2.06642151 C-44.48411073 1.95859092 -38.01217532 1.84397478 -31.5402832 1.7253418 C-29.12201986 1.68191747 -26.70372435 1.64024813 -24.28540039 1.6003418 C-20.81777229 1.54282022 -17.35030722 1.47907438 -13.8828125 1.4140625 C-12.79428482 1.39735001 -11.70575714 1.38063751 -10.58424377 1.36341858 C-9.58328171 1.34347336 -8.58231964 1.32352814 -7.55102539 1.30297852 C-6.22198936 1.27966209 -6.22198936 1.27966209 -4.86610413 1.25587463 C-2.51683852 1.07172472 -2.30114325 0.12162491 0 0 Z " fill="#D5E9FF" transform="translate(123.84765625,140.90234375)"/>
<path d="M0 0 C0 0.66 0 1.32 0 2 C-0.75925781 2.13277344 -1.51851562 2.26554688 -2.30078125 2.40234375 C-3.29464844 2.57894531 -4.28851563 2.75554687 -5.3125 2.9375 C-6.29863281 3.11152344 -7.28476563 3.28554687 -8.30078125 3.46484375 C-11.08189213 3.95746847 -11.08189213 3.95746847 -14 5 C-15.49859938 5.06413131 -17.00012352 5.06946871 -18.49975586 5.03759766 C-19.40757309 5.02072906 -20.31539032 5.00386047 -21.25071716 4.98648071 C-22.22887894 4.9625827 -23.20704071 4.93868469 -24.21484375 4.9140625 C-25.22213028 4.89282318 -26.22941681 4.87158386 -27.26722717 4.84970093 C-29.39818 4.80343394 -31.52907644 4.75450526 -33.65991211 4.703125 C-36.92094369 4.62539464 -40.18207144 4.55817657 -43.44335938 4.4921875 C-45.51303503 4.44594347 -47.58269714 4.39908878 -49.65234375 4.3515625 C-50.62848129 4.33171295 -51.60461884 4.3118634 -52.6103363 4.29141235 C-53.97679039 4.25665298 -53.97679039 4.25665298 -55.37084961 4.22119141 C-56.17010361 4.20263092 -56.9693576 4.18407043 -57.79283142 4.16494751 C-59.96728231 4.00244508 -61.90626914 3.59503931 -64 3 C-61.53313222 1.76656611 -59.85410007 1.84890491 -57.09472656 1.81054688 C-55.56238373 1.78547058 -55.56238373 1.78547058 -53.99908447 1.7598877 C-52.33664703 1.73952454 -52.33664703 1.73952454 -50.640625 1.71875 C-49.5034906 1.70034058 -48.3663562 1.68193115 -47.19476318 1.66296387 C-43.5465626 1.60407655 -39.89831398 1.55135091 -36.25 1.5 C-31.46344513 1.43223586 -26.6770354 1.35847879 -21.890625 1.28125 C-20.24033295 1.26088684 -20.24033295 1.26088684 -18.55670166 1.2401123 C-12.30989895 1.13913176 -6.1980063 0 0 0 Z " fill="#5A8CE9" transform="translate(128,143)"/>
<path d="M0 0 C0.83144531 0.2165625 0.83144531 0.2165625 1.6796875 0.4375 C2.40414062 0.623125 3.12859375 0.80875 3.875 1 C4.59429687 1.185625 5.31359375 1.37125 6.0546875 1.5625 C7.99289317 2.07313965 7.99289317 2.07313965 10 2 C10 2.66 10 3.32 10 4 C22.54 4 35.08 4 48 4 C48 4.33 48 4.66 48 5 C41.77223653 6.47403568 35.43633909 6.29889757 29.07299805 6.35009766 C27.57479255 6.36660235 26.076664 6.39382016 24.57885742 6.43212891 C15.38208405 6.66542083 7.90104098 6.34791365 0 1 C0 0.67 0 0.34 0 0 Z " fill="#6A9AF1" transform="translate(72,112)"/>
<path d="M0 0 C0 0.66 0 1.32 0 2 C-1.5778125 2.680625 -1.5778125 2.680625 -3.1875 3.375 C-8.19847544 6.16566518 -9.884359 10.8912632 -12 16 C-12.33 16 -12.66 16 -13 16 C-13.60965199 22.02031344 -14.13451772 27.94670256 -14 34 C-17.15831712 29.26252432 -17.71006227 24.66049642 -17 19 C-14.76931769 11.58138799 -10.58031953 5.52249785 -4.25 1.0625 C-2 0 -2 0 0 0 Z " fill="#6595EC" transform="translate(79,69)"/>
<path d="M0 0 C1 2 1 2 0.0625 5.125 C-0.288125 6.07375 -0.63875 7.0225 -1 8 C-1.99 8 -2.98 8 -4 8 C-4.30654742 16.61738853 -4.39589303 23.93475404 -1 32 C-4.6873785 28.68135935 -6.66617268 26.00444586 -7.22265625 20.99609375 C-7.50746538 13.87586558 -5.96875113 7.75625158 -1.8125 1.9375 C-1.214375 1.298125 -0.61625 0.65875 0 0 Z " fill="#6694E9" transform="translate(55,152)"/>
<path d="M0 0 C7.1122409 3.27163081 10.53671402 8.07342804 14 15 C14.07116382 17.37402501 14.08409085 19.75000677 14.0625 22.125 C14.05347656 23.40632813 14.04445312 24.68765625 14.03515625 26.0078125 C14.02355469 26.99523437 14.01195312 27.98265625 14 29 C13.67 29 13.34 29 13 29 C13 25.04 13 21.08 13 17 C12.34 17 11.68 17 11 17 C10.67 15.824375 10.34 14.64875 10 13.4375 C8.30785706 8.79029767 5.48858539 6.42358868 1.64453125 3.4453125 C1.10183594 2.96835938 0.55914062 2.49140625 0 2 C0 1.34 0 0.68 0 0 Z " fill="#6490E9" transform="translate(122,70)"/>
<path d="M0 0 C0.66 0 1.32 0 2 0 C2.66 1.65 3.32 3.3 4 5 C4.66 4.34 5.32 3.68 6 3 C7.36948916 6.95630201 6.77791742 8.33249547 6 13 C-4.395 13.495 -4.395 13.495 -15 14 C-15 13.34 -15 12.68 -15 12 C-8.4 12 -1.8 12 5 12 C3.7625 9.586875 3.7625 9.586875 2.5 7.125 C0 2.25 0 2.25 0 0 Z " fill="#7AA5ED" transform="translate(173,55)"/>
<path d="M0 0 C0 0.66 0 1.32 0 2 C-1.2065625 2.433125 -1.2065625 2.433125 -2.4375 2.875 C-5.1326468 3.73262568 -5.1326468 3.73262568 -6 6 C-11.28 6 -16.56 6 -22 6 C-22 5.67 -22 5.34 -22 5 C-20.80761719 4.72285156 -19.61523438 4.44570312 -18.38671875 4.16015625 C-16.82029523 3.79434477 -15.25388993 3.42845529 -13.6875 3.0625 C-12.90181641 2.88009766 -12.11613281 2.69769531 -11.30664062 2.50976562 C-10.54931641 2.33251953 -9.79199219 2.15527344 -9.01171875 1.97265625 C-8.31522217 1.81031494 -7.61872559 1.64797363 -6.90112305 1.48071289 C-1.04520061 0 -1.04520061 0 0 0 Z " fill="#E6F4FE" transform="translate(134,194)"/>
<path d="M0 0 C0.33 0 0.66 0 1 0 C1 2.31 1 4.62 1 7 C0.34 7 -0.32 7 -1 7 C-0.67 9.97 -0.34 12.94 0 16 C-0.66 16 -1.32 16 -2 16 C-2.66 19.3 -3.32 22.6 -4 26 C-4.33 26 -4.66 26 -5 26 C-5.28990996 19.67996284 -4.31836884 14.53501876 -2.5 8.5 C-2.26152344 7.67757812 -2.02304687 6.85515625 -1.77734375 6.0078125 C-1.19438261 4.00242618 -0.59852849 2.00079525 0 0 Z " fill="#6292EA" transform="translate(6,64)"/>
<path d="M0 0 C0.33 0 0.66 0 1 0 C1 5.61 1 11.22 1 17 C0.34 17 -0.32 17 -1 17 C-1.33 18.32 -1.66 19.64 -2 21 C-2.66 21 -3.32 21 -4 21 C-3.35401634 16.12689995 -2.49028264 11.36868161 -1.4375 6.5625 C-1.03337891 4.70818359 -1.03337891 4.70818359 -0.62109375 2.81640625 C-0.31365234 1.42228516 -0.31365234 1.42228516 0 0 Z " fill="#E8F7FC" transform="translate(199,112)"/>
<path d="M0 0 C0.93423645 3.01031744 1.04449911 3.86650268 0 7 C-0.66 7 -1.32 7 -2 7 C-2.2475 7.61875 -2.495 8.2375 -2.75 8.875 C-4.20628639 11.35068687 -5.37812506 11.95125002 -8 13 C-8 13.66 -8 14.32 -8 15 C-9.98 15 -11.96 15 -14 15 C-12.948125 14.1646875 -12.948125 14.1646875 -11.875 13.3125 C-10.92625 12.549375 -9.9775 11.78625 -9 11 C-7.453125 9.824375 -7.453125 9.824375 -5.875 8.625 C-2.90930424 5.91719083 -1.53772154 3.6734459 0 0 Z " fill="#E9F8FE" transform="translate(134,102)"/>
<path d="M0 0 C0.66 0.33 1.32 0.66 2 1 C1.360625 1.556875 0.72125 2.11375 0.0625 2.6875 C-2.19680987 5.22066561 -2.63149047 6.68341424 -3 10 C-3.66 10 -4.32 10 -5 10 C-5 9.34 -5 8.68 -5 8 C-7.31 9.98 -9.62 11.96 -12 14 C-12.66 13.67 -13.32 13.34 -14 13 C-9.51286432 8.4103663 -5.01431776 4.01145421 0 0 Z " fill="#6290E9" transform="translate(39,20)"/>
<path d="M0 0 C1.3058334 3.92128522 0.38030356 5.97831091 -1.40039062 9.68359375 C-1.74263672 10.36550781 -2.08488281 11.04742187 -2.4375 11.75 C-2.77587891 12.44738281 -3.11425781 13.14476562 -3.46289062 13.86328125 C-4.29806458 15.58068121 -5.14765424 17.29105738 -6 19 C-6.33 19 -6.66 19 -7 19 C-7 16.36 -7 13.72 -7 11 C-5.68 10.67 -4.36 10.34 -3 10 C-2.814375 8.9171875 -2.814375 8.9171875 -2.625 7.8125 C-2.0095069 5.04278106 -1.11555626 2.6029646 0 0 Z " fill="#5F8EEB" transform="translate(194,129)"/>
<path d="M0 0 C-3 2 -3 2 -7 2 C-7 2.66 -7 3.32 -7 4 C-15.261959 8.59225513 -15.261959 8.59225513 -20 8 C-15.71596953 4.4299746 -5.42695708 -2.71347854 0 0 Z " fill="#6295EB" transform="translate(72,5)"/>
<path d="M0 0 C1.32 0.66 2.64 1.32 4 2 C2.68 5.96 1.36 9.92 0 14 C-0.33 14 -0.66 14 -1 14 C-2.51708428 4.58997722 -2.51708428 4.58997722 0 0 Z " fill="#578EF2" transform="translate(36,66)"/>
<path d="M0 0 C0.33 0 0.66 0 1 0 C1.15639125 5.06316683 0.62766071 9.50398438 -0.5 14.4375 C-0.7784375 15.67371094 -1.056875 16.90992188 -1.34375 18.18359375 C-1.5603125 19.11300781 -1.776875 20.04242188 -2 21 C-3.25022226 17.24933323 -2.96303317 13.84842609 -2.6875 9.9375 C-2.60886719 8.70902344 -2.53023437 7.48054688 -2.44921875 6.21484375 C-2 3 -2 3 0 0 Z " fill="#6799EE" transform="translate(199,105)"/>
<path d="M0 0 C0.66 0.33 1.32 0.66 2 1 C-7.25 10.25 -7.25 10.25 -11 11 C-9.52202738 7.32943063 -7.52384523 5.58914217 -4.375 3.25 C-3.55773438 2.63640625 -2.74046875 2.0228125 -1.8984375 1.390625 C-0.95871094 0.70226563 -0.95871094 0.70226563 0 0 Z " fill="#E5F5FE" transform="translate(58,48)"/>
<path d="M0 0 C2.15307714 3.22961572 2.77234869 5.61127654 3.625 9.375 C3.88539063 10.49648437 4.14578125 11.61796875 4.4140625 12.7734375 C4.93013392 15.6152708 5.11846848 18.12444684 5 21 C2.70986347 17.5647952 2.82157027 16.014669 3 12 C2.34 12 1.68 12 1 12 C0.67 8.04 0.34 4.08 0 0 Z " fill="#6795E5" transform="translate(194,67)"/>
<path d="M0 0 C1.32 0 2.64 0 4 0 C3.01 4.95 2.02 9.9 1 15 C0.67 15 0.34 15 0 15 C0 10.05 0 5.1 0 0 Z " fill="#E3F2FD" transform="translate(0,73)"/>
<path d="M0 0 C0.99 0.99 1.98 1.98 3 3 C1.7260411 5.03833424 0.38938077 7.03852126 -1 9 C-1.66 9 -2.32 9 -3 9 C-3 9.66 -3 10.32 -3 11 C-3.66 10.67 -4.32 10.34 -5 10 C-3.35 6.7 -1.7 3.4 0 0 Z " fill="#6196EF" transform="translate(12,52)"/>
<path d="M0 0 C1.77662117 1.07381517 3.54609689 2.159458 5.3125 3.25 C6.29863281 3.85328125 7.28476563 4.4565625 8.30078125 5.078125 C10.82922888 6.87840898 12.326533 8.41840585 14 11 C11.525 10.01 11.525 10.01 9 9 C9 8.34 9 7.68 9 7 C8.443125 6.9175 7.88625 6.835 7.3125 6.75 C4.26322081 5.76104459 2.34810037 4.15242534 0 2 C0 1.34 0 0.68 0 0 Z " fill="#628EE4" transform="translate(151,14)"/>
<path d="M0 0 C3.36720387 1.39332574 4.9859524 2.9789286 7 6 C4.69 6 2.38 6 0 6 C-1 3 -1 3 0 0 Z " fill="#5A8FF0" transform="translate(165,25)"/>
<path d="M0 0 C0.66 0.33 1.32 0.66 2 1 C0.68 4.63 -0.64 8.26 -2 12 C-3.65 10.35 -5.3 8.7 -7 7 C-6.01 7 -5.02 7 -4 7 C-3.67 7.33 -3.34 7.66 -3 8 C-2.01 5.36 -1.02 2.72 0 0 Z " fill="#6392E5" transform="translate(23,148)"/>
<path d="M0 0 C1.73169596 3.1622274 2.7128976 6.26742722 3.625 9.75 C3.88539062 10.73484375 4.14578125 11.7196875 4.4140625 12.734375 C4.60742188 13.48203125 4.80078125 14.2296875 5 15 C4.34 15.66 3.68 16.32 3 17 C2.49255577 15.10614563 1.99435426 13.20981334 1.5 11.3125 C1.2215625 10.25675781 0.943125 9.20101562 0.65625 8.11328125 C0.0608285 5.28857328 -0.12786492 2.87163292 0 0 Z " fill="#E6F5FE" transform="translate(34,94)"/>
<path d="M0 0 C0.66 0 1.32 0 2 0 C3.625 2 3.625 2 5 4 C3.68 5.32 2.36 6.64 1 8 C1 6.68 1 5.36 1 4 C0.01 3.67 -0.98 3.34 -2 3 C-1.34 2.01 -0.68 1.02 0 0 Z " fill="#568EF3" transform="translate(171,161)"/>
<path d="M0 0 C4.95 0 9.9 0 15 0 C15 0.66 15 1.32 15 2 C15.66 2.33 16.32 2.66 17 3 C11.39 2.34 5.78 1.68 0 1 C0 0.67 0 0.34 0 0 Z " fill="#D2EBFE" transform="translate(108,0)"/>
<path d="M0 0 C0.83144531 0.2165625 0.83144531 0.2165625 1.6796875 0.4375 C2.40414062 0.623125 3.12859375 0.80875 3.875 1 C4.59429687 1.185625 5.31359375 1.37125 6.0546875 1.5625 C7.99289317 2.07313965 7.99289317 2.07313965 10 2 C10 2.66 10 3.32 10 4 C12.31 4 14.62 4 17 4 C17 4.33 17 4.66 17 5 C10.11509775 5.57374185 5.97332123 4.4753869 0 1 C0 0.67 0 0.34 0 0 Z " fill="#5F8FE9" transform="translate(72,112)"/>
<path d="M0 0 C5.27749285 0.53851968 9.25645564 1.77343836 14 4 C10.30962722 5.37095624 8.29116165 4.60010967 4.75 3.0625 C3.85796875 2.68222656 2.9659375 2.30195313 2.046875 1.91015625 C1.37140625 1.60980469 0.6959375 1.30945313 0 1 C0 0.67 0 0.34 0 0 Z " fill="#6994E7" transform="translate(64,192)"/>
<path d="M0 0 C-5.445 2.475 -5.445 2.475 -11 5 C-11.66 4.34 -12.32 3.68 -13 3 C-11.5903653 2.29819469 -10.17192359 1.61406042 -8.75 0.9375 C-7.96109375 0.55464844 -7.1721875 0.17179687 -6.359375 -0.22265625 C-4 -1 -4 -1 0 0 Z " fill="#DDEFFE" transform="translate(75,43)"/>
<path d="M0 0 C1 3 1 3 1 6 C-0.8125 7.0625 -0.8125 7.0625 -3 8 C-3.99 7.67 -4.98 7.34 -6 7 C-4.02 4.69 -2.04 2.38 0 0 Z " fill="#E1F4FE" transform="translate(181,158)"/>
<path d="M0 0 C1.32 0.33 2.64 0.66 4 1 C1.525 4.465 1.525 4.465 -1 8 C-2.0625 6.125 -2.0625 6.125 -3 4 C-2.67 3.34 -2.34 2.68 -2 2 C-1.34 2 -0.68 2 0 2 C0 1.34 0 0.68 0 0 Z " fill="#608EEE" transform="translate(28,137)"/>
<path d="M0 0 C0.99 0.33 1.98 0.66 3 1 C1.90081184 1.98475214 0.7954398 2.96260473 -0.3125 3.9375 C-0.92738281 4.48277344 -1.54226562 5.02804688 -2.17578125 5.58984375 C-4 7 -4 7 -7 8 C-7.33 7.34 -7.66 6.68 -8 6 C-7.01 5.67 -6.02 5.34 -5 5 C-4.67 4.34 -4.34 3.68 -4 3 C-3.01 3 -2.02 3 -1 3 C-0.67 2.01 -0.34 1.02 0 0 Z " fill="#6592E9" transform="translate(128,108)"/>
<path d="M0 0 C-2.49505962 2.49505962 -3.67328888 2.35948376 -7.125 2.625 C-8.03507812 2.69976562 -8.94515625 2.77453125 -9.8828125 2.8515625 C-10.93082031 2.92503906 -10.93082031 2.92503906 -12 3 C-7.82744729 -0.58050131 -5.33135955 -0.26656798 0 0 Z " fill="#DEF0FE" transform="translate(130,141)"/>
<path d="M0 0 C1.32 0.33 2.64 0.66 4 1 C4.66 3.97 5.32 6.94 6 10 C3.47650757 6.87567603 1.72743854 3.61939504 0 0 Z " fill="#E5F6FE" transform="translate(130,75)"/>
<path d="M0 0 C-1.28913487 0.67154933 -2.58140204 1.33708859 -3.875 2 C-4.59429687 2.37125 -5.31359375 2.7425 -6.0546875 3.125 C-8 4 -8 4 -10 4 C-10.33 3.01 -10.66 2.02 -11 1 C-3.375 -1.125 -3.375 -1.125 0 0 Z " fill="#618FEA" transform="translate(68,44)"/>
<path d="M0 0 C0.66 0.33 1.32 0.66 2 1 C-0.64 2.98 -3.28 4.96 -6 7 C-6 5.35 -6 3.7 -6 2 C-4 1.33333333 -2 0.66666667 0 0 Z " fill="#6292E9" transform="translate(162,176)"/>
<path d="M0 0 C0.33 0 0.66 0 1 0 C1 1.65 1 3.3 1 5 C-1.64738916 6.4606285 -2.89448334 7 -6 7 C-5.02433888 5.83040013 -4.044375 4.66438823 -3.0625 3.5 C-2.51722656 2.8503125 -1.97195312 2.200625 -1.41015625 1.53125 C-0.71212891 0.77328125 -0.71212891 0.77328125 0 0 Z " fill="#DFF2FE" transform="translate(35,133)"/>
<path d="M0 0 C0.99 0.33 1.98 0.66 3 1 C1.35 2.98 -0.3 4.96 -2 7 C-2.6875 5.1875 -2.6875 5.1875 -3 3 C-1.5625 1.25 -1.5625 1.25 0 0 Z " fill="#6591EA" transform="translate(45,57)"/>
<path d="M0 0 C0.33 0 0.66 0 1 0 C0.67 2.31 0.34 4.62 0 7 C-0.66 7 -1.32 7 -2 7 C-2 7.66 -2 8.32 -2 9 C-2.66 8.67 -3.32 8.34 -4 8 C-2.68 5.36 -1.36 2.72 0 0 Z " fill="#6698EA" transform="translate(160,112)"/>
</svg>
